<?xml version="1.0" encoding="utf-8"?>
<svg width="512" height="512" viewBox="0 0 512 512" fill="none" xmlns="http://www.w3.org/2000/svg">
  <defs>
    <path id="path_1" d="M0 243C0 108.795 108.795 0 243 0C377.205 0 486 108.795 486 243C486 377.205 377.205 486 243 486C108.795 486 0 377.205 0 243Z" />
    <clipPath id="clip_path_2">
      <use p4:href="#path_1" xmlns:p4="http://www.w3.org/1999/xlink" />
    </clipPath>
    <radialGradient id="gradient_3" gradientUnits="userSpaceOnUse" cx="0" cy="0" r="1" gradientTransform="matrix(0 58.5 -74.75 0 74.75 58.5)">
      <stop offset="0" stop-color="#FFFFFF" />
      <stop offset="1" stop-color="#FFFFFF" />
    </radialGradient>
  </defs>
  <g id="SingleElement">
    <g transform="translate(12 15)">
      <rect width="486" height="486" />
      <g id="Group Mask">
        <path id="Mask" d="M0 243C0 108.795 108.795 0 243 0C377.205 0 486 108.795 486 243C486 377.205 377.205 486 243 486C108.795 486 0 377.205 0 243Z" fill="#FFFFFF" fill-rule="evenodd" />
        <g clip-path="url(#clip_path_2)">
          <g id="Group">
            <path id="Oval Subtract" d="M3.11243 204.004C1.06437 216.7 0 229.726 0 243C0 282 9.18769 318.855 25.5167 351.517Q29.2296 352.783 33.25 355.625Q40.5 360.75 50.375 367Q60.25 373.25 73.625 378.375Q87 383.5 105.75 383.5Q134.5 383.5 150.25 369.875Q166 356.25 166 330.75Q166 316.5 158.875 307.5Q151.75 298.5 140 292.375Q128.25 286.25 113.25 282Q98.25 277.75 82.75 272.75Q67.25 267.75 52.25 260.75Q37.25 253.75 25.5 242.5Q13.75 231.25 6.625 214.375Q4.57331 209.516 3.11243 204.004ZM63.1821 79.5517Q65.3068 78.6223 67.5 77.75Q89.5 69 117.75 69Q149.75 69 176.75 79Q203.75 89 222.75 107L206.25 138.75Q203.5 144.25 199.875 146.5Q196.25 148.75 191.25 148.75Q186.25 148.75 180 144.875Q173.75 141 165.25 136.25Q156.75 131.5 145.375 127.625Q134 123.75 118.5 123.75Q104.5 123.75 94.125 127.125Q83.75 130.5 76.625 136.5Q69.5 142.5 66 150.875Q62.5 159.25 62.5 169.25Q62.5 182 69.625 190.5Q76.75 199 88.5 205Q100.25 211 115.25 215.75Q130.25 220.5 145.875 225.875Q161.5 231.25 176.5 238.375Q191.5 245.5 203.25 256.375Q215 267.25 222.125 283Q224.256 287.711 225.75 293.026L225.75 216L343.5 216Q379.75 216 406.25 224.5Q432.75 233 450 248.25Q467.25 263.5 475.5 284.75Q478.003 291.197 479.747 298.012C483.838 280.336 486 261.92 486 243C486 108.795 377.205 0 243 0C171.733 0 107.631 30.6794 63.1821 79.5517ZM372.628 448.574Q358.926 450.25 343.5 450.25L293 450.25L293 480.851C321.734 474.841 348.604 463.755 372.628 448.574ZM225.75 485.397L225.75 351.621Q223.836 359.568 220.875 367.125Q212.5 388.5 196.375 404.375Q180.25 420.25 157 429.375Q133.75 438.5 103.75 438.5Q101.144 438.5 98.5478 438.423C134.599 465.115 178.295 482.069 225.75 485.397ZM293 397.75L343.5 397.75Q362 397.75 375.75 393.125Q389.5 388.5 398.5 379.875Q407.5 371.25 412 358.875Q416.5 346.5 416.5 331.25Q416.5 316.75 412 305Q407.5 293.25 398.5 285Q389.5 276.75 375.75 272.375Q362 268 343.5 268L293 268L293 397.75Z" fill="#FFB27F" fill-rule="evenodd" />
            <path id="Vector" d="M149.5 17.5C123.679 17.5 116.468 23.1588 85.0002 25.0003C53.5331 26.8418 0 0 0 0L76.0368 59.5072L149.501 117.001L149.5 17.5Z" fill="#FFFFFF" fill-rule="evenodd" stroke-width="1" stroke="url(#gradient_3)" transform="translate(76.5 199)" />
            <path id="Vector" d="M0 92.5003C0 92.5003 24.2516 80.2036 40.0001 81.5001C55.7486 82.7966 53.5 110.5 53.5 110.5L53.0002 0L50.5002 10.5L0 92.5003Z" fill="#FFFFFF" fill-rule="evenodd" stroke-width="1" stroke="#FFFFFF" transform="translate(173 328.5)" />
            <path id="Vector" d="M99.9718 2.28143C99.9718 2.28143 48.4998 -2.09802 48.4998 33.2814C48.4998 68.6609 48.4998 67.1063 48.4998 100.781C48.4998 134.457 99.9715 133.281 99.9715 133.281L99.9715 158.281L0 158.281L0 0L99.9718 2.28143Z" fill="#FFFFFF" fill-rule="evenodd" stroke-width="1" stroke="#FFFFFF" transform="translate(244 265.219)" />
            <g transform="translate(292.992 450)">
              <path id="Vector" d="M8.51855 26.847C8.51855 26.847 0.0085144 28 0.0085144 24.0001C0.0085144 20.0001 0.0085144 5 0.0085144 5C0.0085144 5 -0.601898 0 8.51855 0C17.639 0 64.5088 0 64.5088 0C64.5088 0 72.7588 0.375 66.5088 5C60.2588 9.62503 54.0062 13.0383 39.5087 18.5001C25.0111 23.9618 8.51855 26.847 8.51855 26.847Z" />
              <path d="M2.99875 39.8596Q6.64578 40.2226 10.2866 39.7293L10.5348 39.6957L10.7815 39.6526Q28.4756 36.5571 44.1145 30.6654Q63.6474 23.3066 74.2645 15.45Q80.715 10.6765 81.7046 4.24432Q82.5874 -1.49396 79.1992 -6.20499Q77.1551 -9.04709 73.9126 -10.7474Q70.0716 -12.7616 65.1218 -12.9866L64.8268 -13L8.54129 -13Q-3.45642 -13 -9.33496 -5.55844Q-13.3385 -0.490448 -12.9688 5.53339L-12.9688 24.0001Q-12.9688 32.9315 -5.07294 37.4286Q-1.61017 39.4009 2.99875 39.8596ZM0.03125 5L0.03125 24.0001C0.03125 28 8.54129 26.847 8.54129 26.847C8.54129 26.847 25.0338 23.9618 39.5314 18.5001C45.0208 16.432 49.3281 14.6577 52.9007 13C55.149 11.9568 57.1064 10.9599 58.8844 9.96503C60.8326 8.87488 62.5654 7.78726 64.2295 6.64417C64.3304 6.57486 64.4311 6.50534 64.5315 6.43561C65.2048 5.96814 65.8682 5.49088 66.5315 5C72.7815 0.375 64.5315 0 64.5315 0L8.54129 0C-0.579163 0 0.03125 5 0.03125 5Z" fill="#FFFFFF" fill-rule="evenodd" />
            </g>
          </g>
        </g>
      </g>
    </g>
    <rect width="512" height="512" />
  </g>
</svg>